<mxfile host="65bd71144e">
    <diagram id="BpHc-Y5u9V5LaRtW-_PX" name="Page-1">
        <mxGraphModel dx="756" dy="471" grid="1" gridSize="10" guides="1" tooltips="1" connect="1" arrows="1" fold="1" page="1" pageScale="1" pageWidth="827" pageHeight="1169" math="0" shadow="0">
            <root>
                <mxCell id="0"/>
                <mxCell id="1" parent="0"/>
                <mxCell id="2" value="" style="whiteSpace=wrap;html=1;" vertex="1" parent="1">
                    <mxGeometry x="200" y="50" width="380" height="230" as="geometry"/>
                </mxCell>
                <mxCell id="4" value="" style="whiteSpace=wrap;html=1;" vertex="1" parent="1">
                    <mxGeometry x="260" y="80" width="260" height="180" as="geometry"/>
                </mxCell>
                <mxCell id="3" value="ReviewProgress" style="whiteSpace=wrap;html=1;" vertex="1" parent="1">
                    <mxGeometry x="277" y="100" width="226" height="40" as="geometry"/>
                </mxCell>
                <mxCell id="5" value="CardReview" style="text;html=1;align=center;verticalAlign=middle;resizable=0;points=[];autosize=1;strokeColor=none;fillColor=none;" vertex="1" parent="1">
                    <mxGeometry x="340" y="60" width="90" height="30" as="geometry"/>
                </mxCell>
                <mxCell id="6" value="CardGroup&lt;br&gt;&lt;br&gt;&lt;br&gt;" style="whiteSpace=wrap;html=1;" vertex="1" parent="1">
                    <mxGeometry x="277" y="150" width="223" height="100" as="geometry"/>
                </mxCell>
                <mxCell id="7" value="Card" style="whiteSpace=wrap;html=1;" vertex="1" parent="1">
                    <mxGeometry x="300" y="200" width="190" height="30" as="geometry"/>
                </mxCell>
                <mxCell id="8" value="/review" style="text;html=1;align=center;verticalAlign=middle;resizable=0;points=[];autosize=1;strokeColor=none;fillColor=none;" vertex="1" parent="1">
                    <mxGeometry x="290" y="25" width="60" height="30" as="geometry"/>
                </mxCell>
            </root>
        </mxGraphModel>
    </diagram>
</mxfile>